<svg width="68" height="37" viewBox="0 0 68 37" fill="none" xmlns="http://www.w3.org/2000/svg">
<path d="M4.19155 4.06064C3.94178 4.32195 3.57987 4.47748 3.20221 4.50605C2.82358 4.53386 2.46019 4.4324 2.17518 4.21095C1.89018 3.9895 1.70208 3.66245 1.63547 3.28868C1.56984 2.91568 1.63111 2.52656 1.82261 2.21996C1.82261 2.21996 1.82261 2.21996 1.82261 2.21996C1.97272 2.01037 2.16475 1.79906 2.43118 1.62016C2.68274 1.4386 3.17865 1.2591 3.59819 1.27708C4.01577 1.28621 4.32935 1.39717 4.60165 1.53283C4.87539 1.67649 4.99969 1.76825 5.16604 1.89878C5.75571 2.39101 6.03697 2.78091 6.34881 3.18608C6.92635 3.96044 7.4083 4.76465 7.83694 5.49391C8.69882 6.98931 9.4457 8.47513 10.1039 9.98257C11.6936 13.638 13.2556 17.2412 15.0005 20.6114C15.8713 22.2856 16.7967 23.9225 17.7832 25.2997C18.2676 25.9749 18.7898 26.6027 19.2495 27.0197C19.699 27.4525 20.1123 27.5746 19.9481 27.5035C20.4021 27.5612 20.6357 27.52 20.9434 27.4027C21.5914 27.1987 22.8185 26.0476 23.9891 24.4939C25.2607 22.9555 26.2308 21.0373 28.8211 19.0581C29.7253 18.4094 31.1026 17.8176 32.5208 17.8397C33.9368 17.8489 35.0868 18.3309 35.9906 18.8579C37.7296 19.9144 38.8107 21.1357 39.8499 22.3601C42.2205 25.2128 44.6519 28.0537 47.2444 30.259C48.0955 30.9758 49.046 31.62 49.7159 31.8614C50.0507 31.9868 50.2443 31.9896 50.2955 31.9908C50.3455 31.9939 50.4527 31.9814 50.6753 31.7467C51.6377 30.687 52.3454 28.0129 52.8302 25.6796C52.9093 25.2856 52.9895 24.9506 53.0984 24.5656C53.3711 23.6744 53.6845 22.6763 54.616 21.6547C55.5317 20.5379 57.5085 20.2194 58.5328 20.5796C60.666 21.2181 61.806 22.3075 63.1084 23.071C63.7587 23.4753 64.4218 23.8249 64.9508 23.9428C65.4876 24.0481 65.7821 24.011 66.213 23.5713C66.3772 23.3852 66.6172 23.2699 66.8723 23.2447C67.1279 23.2199 67.3776 23.2871 67.5744 23.4378C67.7713 23.5885 67.9015 23.812 67.9442 24.0652C67.9865 24.318 67.9379 24.5798 67.8012 24.7869C67.8012 24.7869 67.8012 24.7869 67.8012 24.7869C67.2443 25.7277 65.8321 26.4217 64.7008 26.2928C63.5808 26.2227 62.6854 25.8573 61.8629 25.5217C60.3314 24.8752 58.8293 24.0591 57.8448 23.972C57.6177 23.9524 57.4891 23.9957 57.474 24.0279C57.4592 24.0626 57.4869 24.0618 57.4258 24.1577C57.3034 24.3438 57.0904 24.9178 56.9805 25.5295C56.9291 25.7945 56.8922 26.0431 56.8543 26.3478C56.419 28.9915 56.3351 31.6184 54.2022 34.6772C53.6153 35.4258 52.6578 36.221 51.46 36.5357C50.2702 36.8595 49.1337 36.6895 48.2692 36.4325C46.5282 35.8891 45.2996 35.0232 44.1597 34.194C40.8461 31.6616 38.268 28.8466 35.6495 25.9981C34.7977 25.06 33.8644 24.2311 33.1588 23.8813C32.7997 23.6972 32.5905 23.6951 32.5829 23.7188C32.5789 23.7445 32.5781 23.7278 32.3428 23.916C30.3694 25.3002 29.7459 30.7336 23.5628 33.8941C22.0493 34.5235 20.2571 34.6479 18.7668 34.3609C14.5512 33.2476 13.5204 30.7789 12.2195 28.9623C11.0351 27.0238 10.1758 25.0957 9.39506 23.1791C7.85217 19.348 6.67843 15.517 5.43473 11.771C4.92311 10.2333 4.49728 8.67259 4.04142 7.17004C3.82321 6.43988 3.55987 5.64303 3.3009 5.02062C3.17487 4.70924 3.00753 4.40906 2.97506 4.32321C2.96772 4.26892 3.03255 4.38703 3.46844 4.40469C3.68503 4.41016 3.95235 4.30367 4.04713 4.22356C4.15423 4.14356 4.19152 4.07707 4.19155 4.06064Z" fill="#003198"/>
<path d="M4.39655 5.53731C3.83862 6.22201 3.03097 6.29663 2.26838 5.9948C1.50461 5.69043 0.827745 4.99033 0.407412 4.09274C-0.0129202 3.19515 -0.117303 2.22696 0.137939 1.4454C0.394368 0.666366 0.968809 0.0937635 1.85199 0.103603C1.85199 0.103603 1.85199 0.103603 1.85199 0.103603C4.08402 -0.26781 6.46493 0.396014 7.8332 1.50198C9.23055 2.55893 10.1417 3.72014 11.1063 4.79419C14.3379 8.4182 17.149 13.6379 20.2448 14.9202C22.0137 15.4546 23.2186 14.2626 25.2323 12.356C26.5106 11.2091 28.2264 9.58696 30.8705 9.43845C33.523 9.38934 35.2559 10.8725 36.7018 12.0955C36.7199 12.1114 36.7379 12.1272 36.756 12.1431C38.4514 13.6304 40.0188 15.1935 41.5042 16.9033C42.2392 17.7467 42.9421 18.62 43.6154 19.4613C44.2377 20.2535 45.0938 21.2379 45.3288 21.2932C45.3604 21.3037 45.3138 21.2881 45.3084 21.2855C45.3015 21.281 45.3545 21.2655 45.4525 21.2063C45.6426 21.0956 45.9558 20.8325 46.2264 20.5515C46.8042 19.96 47.3669 19.2349 47.9266 18.4929C49.0416 17.0043 50.1528 15.4206 51.3785 13.9685C51.818 13.4629 52.3235 12.9941 52.9669 12.6002C54.1316 11.8216 56.0747 11.5971 57.3935 12.1506C58.7356 12.6642 59.5613 13.4869 60.2353 14.2548C61.5529 15.8193 62.3551 17.4143 63.3545 18.8441C63.834 19.5385 64.2955 20.2318 64.7551 20.8931C65.1431 21.4493 65.5375 21.9987 65.9131 22.4158C66.084 22.614 66.3109 22.7901 66.2782 22.7612C66.2631 22.7538 66.2139 22.7294 66.1219 22.7119C66.0232 22.6916 65.8546 22.6881 65.6988 22.7338C65.3637 22.8362 65.267 23.0102 65.259 23.0161C65.4797 22.6851 65.8228 22.4553 66.2129 22.3773C66.603 22.2992 67.0081 22.3794 67.3391 22.6001C67.6701 22.8207 67.8999 23.1639 67.978 23.554C68.056 23.9441 67.9758 24.3492 67.7552 24.6802C67.7552 24.6802 67.7552 24.6802 67.7552 24.6802C67.6392 24.8538 67.4979 25.026 67.3164 25.1838C67.1325 25.348 66.8248 25.5374 66.5134 25.621C66.1931 25.7138 65.8439 25.7143 65.5683 25.6603C65.3165 25.6129 65.0997 25.5277 64.9152 25.4337C64.2737 25.0853 63.9859 24.7413 63.6896 24.4298C63.123 23.7953 62.7108 23.2019 62.2926 22.6066C61.8063 21.9067 61.3481 21.218 60.8854 20.5479C59.9414 19.1803 58.7367 17.9652 57.5421 17.2123C56.9572 16.84 56.3609 16.6255 56.0599 16.6444C55.7473 16.6798 55.8503 16.7313 55.5684 16.8701C55.4306 16.9535 55.2323 17.097 55.0006 17.3162C53.6543 18.6411 52.1939 19.8919 50.6983 21.1434C49.9404 21.7723 49.1974 22.3941 48.3234 23.0381C47.8966 23.3429 47.412 23.6926 46.765 23.9801C46.1592 24.2849 44.9796 24.4567 44.1527 24.0531C42.4226 23.1322 42.0269 22.1687 41.2765 21.34C40.5946 20.488 39.9341 19.6679 39.2404 18.8718C37.8436 17.2644 36.3797 15.8041 34.7775 14.3982C34.7604 14.3832 34.7433 14.3683 34.7262 14.3533C33.5321 13.2905 32.1068 12.6838 31.1755 12.93C30.2452 13.1069 29.212 14.0961 27.9593 15.2823C26.9985 16.1627 25.9439 17.2039 24.3822 17.9808C22.8437 18.8037 20.6137 18.8651 19.0657 18.141C13.5201 14.5276 12.9466 9.60514 9.60589 6.11663C8.75462 5.14442 7.6317 4.34538 6.53994 4.18818C5.39822 4.01753 4.71347 4.6476 4.39655 5.53731Z" fill="#003198"/>
</svg>
