<svg width="36" height="20" viewBox="0 0 36 20" fill="none" xmlns="http://www.w3.org/2000/svg">
<path d="M28.125 11.1111H7.875C7.245 11.1111 6.75 10.6222 6.75 10C6.75 9.37777 7.245 8.88889 7.875 8.88889H28.125C28.755 8.88889 29.25 9.37777 29.25 10C29.25 10.6222 28.755 11.1111 28.125 11.1111Z" fill="white"/>
<path d="M22.5 18.8889C22.3525 18.8907 22.2062 18.8619 22.0705 18.8045C21.9349 18.7471 21.813 18.6623 21.7125 18.5556C21.2625 18.1111 21.2625 17.4222 21.7125 16.9778L28.8 9.97778L21.7125 2.97778C21.2625 2.53333 21.2625 1.84444 21.7125 1.4C22.1625 0.955555 22.86 0.955555 23.31 1.4L31.185 9.17778C31.635 9.62222 31.635 10.3111 31.185 10.7556L23.31 18.5333C23.085 18.7556 22.7925 18.8667 22.5225 18.8667L22.5 18.8889Z" fill="white"/>
</svg>
